<svg width="74" height="23" viewBox="0 0 74 23" fill="none" xmlns="http://www.w3.org/2000/svg">
<g clip-path="url(#clip0_136_3220)">
<path d="M7.00462 8.56348C6.9549 8.09828 6.74538 7.73606 6.37607 7.47683C6.0103 7.2176 5.53445 7.08798 4.94851 7.08798C4.53658 7.08798 4.18324 7.15012 3.88849 7.27441C3.59375 7.3987 3.36825 7.56738 3.212 7.78045C3.05575 7.99352 2.97585 8.23677 2.9723 8.51021C2.9723 8.73748 3.02379 8.93457 3.12678 9.10147C3.23331 9.26838 3.37713 9.41042 3.55824 9.52761C3.73935 9.64125 3.93999 9.73713 4.16016 9.81525C4.38033 9.89338 4.60227 9.95907 4.82599 10.0123L5.84872 10.268C6.26065 10.3639 6.65661 10.4935 7.03658 10.6569C7.4201 10.8202 7.76278 11.0262 8.06463 11.2748C8.37003 11.5233 8.61151 11.8234 8.78906 12.175C8.96662 12.5265 9.0554 12.9385 9.0554 13.4108C9.0554 14.05 8.89205 14.6128 8.56534 15.0993C8.23864 15.5823 7.76634 15.9605 7.14844 16.2339C6.53409 16.5038 5.79013 16.6388 4.91655 16.6388C4.06783 16.6388 3.33097 16.5074 2.70597 16.2446C2.08452 15.9818 1.59801 15.5983 1.24645 15.094C0.898438 14.5898 0.710227 13.9754 0.681818 13.251H2.62607C2.65447 13.6309 2.77166 13.947 2.97763 14.1991C3.18359 14.4513 3.4517 14.6395 3.78196 14.7638C4.11577 14.8881 4.48864 14.9502 4.90057 14.9502C5.33026 14.9502 5.70668 14.8863 6.02983 14.7584C6.35653 14.627 6.61222 14.4459 6.79688 14.2151C6.98153 13.9807 7.07564 13.7073 7.07919 13.3948C7.07564 13.1107 6.99219 12.8763 6.82884 12.6917C6.66548 12.5035 6.43643 12.3472 6.14169 12.2229C5.8505 12.0951 5.50959 11.9814 5.11896 11.882L3.87784 11.5624C2.9794 11.3316 2.26918 10.9818 1.74716 10.5131C1.22869 10.0407 0.96946 9.41397 0.96946 8.63272C0.96946 7.98997 1.14347 7.42711 1.49148 6.94416C1.84304 6.4612 2.32067 6.08656 2.92436 5.82022C3.52805 5.55034 4.21165 5.41539 4.97514 5.41539C5.74929 5.41539 6.42756 5.55034 7.00994 5.82022C7.59588 6.08656 8.05575 6.45765 8.38956 6.9335C8.72337 7.40581 8.8956 7.94913 8.90625 8.56348H7.00462ZM14.3541 16.6334C13.5338 16.6334 12.8254 16.463 12.2288 16.1221C11.6357 15.7776 11.1794 15.2911 10.8598 14.6626C10.5402 14.0305 10.3804 13.2865 10.3804 12.4307C10.3804 11.589 10.5402 10.8504 10.8598 10.2148C11.183 9.57555 11.634 9.07839 12.2128 8.72328C12.7916 8.36461 13.4717 8.18528 14.2529 8.18528C14.7572 8.18528 15.233 8.26696 15.6805 8.43031C16.1315 8.59011 16.5292 8.83869 16.8737 9.17605C17.2217 9.51341 17.4951 9.94309 17.694 10.4651C17.8928 10.9836 17.9923 11.6015 17.9923 12.3188V12.9101H11.286V11.6104H16.1439C16.1404 11.241 16.0605 10.9126 15.9042 10.6249C15.748 10.3337 15.5296 10.1047 15.249 9.93777C14.972 9.77086 14.6489 9.68741 14.2796 9.68741C13.8854 9.68741 13.5392 9.78329 13.2409 9.97505C12.9426 10.1633 12.71 10.4118 12.5431 10.7208C12.3797 11.0262 12.2963 11.3618 12.2927 11.7275V12.8621C12.2927 13.338 12.3797 13.7464 12.5537 14.0873C12.7277 14.4246 12.971 14.6839 13.2835 14.865C13.596 15.0425 13.9617 15.1313 14.3808 15.1313C14.6613 15.1313 14.9152 15.0922 15.1425 15.0141C15.3698 14.9324 15.5669 14.8135 15.7338 14.6572C15.9007 14.501 16.0267 14.3074 16.1119 14.0766L17.9124 14.279C17.7987 14.7549 17.5821 15.1704 17.2625 15.5255C16.9465 15.877 16.5416 16.1505 16.048 16.3458C15.5544 16.5376 14.9898 16.6334 14.3541 16.6334ZM23.2457 16.6334C22.4254 16.6334 21.717 16.463 21.1204 16.1221C20.5273 15.7776 20.071 15.2911 19.7514 14.6626C19.4318 14.0305 19.272 13.2865 19.272 12.4307C19.272 11.589 19.4318 10.8504 19.7514 10.2148C20.0746 9.57555 20.5256 9.07839 21.1044 8.72328C21.6832 8.36461 22.3633 8.18528 23.1445 8.18528C23.6488 8.18528 24.1246 8.26696 24.5721 8.43031C25.0231 8.59011 25.4208 8.83869 25.7653 9.17605C26.1133 9.51341 26.3867 9.94309 26.5856 10.4651C26.7844 10.9836 26.8839 11.6015 26.8839 12.3188V12.9101H20.1776V11.6104H25.0355C25.032 11.241 24.9521 10.9126 24.7958 10.6249C24.6396 10.3337 24.4212 10.1047 24.1406 9.93777C23.8636 9.77086 23.5405 9.68741 23.1712 9.68741C22.777 9.68741 22.4308 9.78329 22.1325 9.97505C21.8342 10.1633 21.6016 10.4118 21.4347 10.7208C21.2713 11.0262 21.1879 11.3618 21.1843 11.7275V12.8621C21.1843 13.338 21.2713 13.7464 21.4453 14.0873C21.6193 14.4246 21.8626 14.6839 22.1751 14.865C22.4876 15.0425 22.8533 15.1313 23.2724 15.1313C23.5529 15.1313 23.8068 15.0922 24.0341 15.0141C24.2614 14.9324 24.4585 14.8135 24.6254 14.6572C24.7923 14.501 24.9183 14.3074 25.0036 14.0766L26.804 14.279C26.6903 14.7549 26.4737 15.1704 26.1541 15.5255C25.8381 15.877 25.4332 16.1505 24.9396 16.3458C24.446 16.5376 23.8814 16.6334 23.2457 16.6334ZM34.5903 16.6388C34.0718 16.6388 33.6048 16.5464 33.1894 16.3618C32.7774 16.1736 32.4507 15.8966 32.2093 15.5308C31.9713 15.165 31.8524 14.714 31.8524 14.1778C31.8524 13.7162 31.9376 13.3344 32.108 13.0326C32.2785 12.7307 32.5111 12.4893 32.8058 12.3081C33.1006 12.127 33.4326 11.9903 33.8019 11.898C34.1748 11.8021 34.5601 11.7329 34.9578 11.6903C35.4372 11.6405 35.8261 11.5961 36.1244 11.5571C36.4227 11.5145 36.6393 11.4506 36.7742 11.3653C36.9127 11.2765 36.982 11.1398 36.982 10.9552V10.9232C36.982 10.5219 36.863 10.2112 36.6251 9.99103C36.3872 9.77086 36.0445 9.66078 35.597 9.66078C35.1247 9.66078 34.7501 9.76376 34.4731 9.96973C34.1997 10.1757 34.015 10.4189 33.9191 10.6995L32.1187 10.4438C32.2607 9.94664 32.4951 9.53116 32.8218 9.19735C33.1485 8.86 33.548 8.60787 34.0203 8.44096C34.4926 8.27051 35.0146 8.18528 35.5864 8.18528C35.9806 8.18528 36.373 8.23145 36.7636 8.32377C37.1542 8.4161 37.5111 8.5688 37.8343 8.78187C38.1574 8.99139 38.4166 9.27725 38.6119 9.63947C38.8108 10.0017 38.9102 10.4545 38.9102 10.9978V16.4736H37.0566V15.3497H36.9926C36.8754 15.577 36.7103 15.79 36.4972 15.9889C36.2877 16.1842 36.0232 16.3422 35.7036 16.463C35.3875 16.5802 35.0164 16.6388 34.5903 16.6388ZM35.091 15.2219C35.4781 15.2219 35.8137 15.1455 36.0977 14.9928C36.3818 14.8366 36.6002 14.6306 36.7529 14.3749C36.9092 14.1192 36.9873 13.8405 36.9873 13.5386V12.5745C36.9269 12.6242 36.824 12.6704 36.6784 12.713C36.5363 12.7556 36.3765 12.7929 36.199 12.8248C36.0214 12.8568 35.8456 12.8852 35.6716 12.9101C35.4976 12.9349 35.3467 12.9562 35.2188 12.974C34.9312 13.0131 34.6737 13.077 34.4465 13.1657C34.2192 13.2545 34.0399 13.3788 33.9085 13.5386C33.7771 13.6949 33.7114 13.8973 33.7114 14.1459C33.7114 14.501 33.841 14.7691 34.1002 14.9502C34.3595 15.1313 34.6897 15.2219 35.091 15.2219ZM42.7774 5.56454V16.4736H40.8492V5.56454H42.7774ZM46.6886 5.56454V16.4736H44.7603V5.56454H46.6886Z" fill="#D3AD7F"/>
<path d="M70.75 9.80697C70.75 10.2212 71.0858 10.557 71.5 10.557C71.9142 10.557 72.25 10.2212 72.25 9.80697H70.75ZM65.6667 3.22363C65.2525 3.22363 64.9167 3.55942 64.9167 3.97363C64.9167 4.38785 65.2525 4.72363 65.6667 4.72363V3.22363ZM71.3728 4.61064L72.0411 4.27015V4.27015L71.3728 4.61064ZM70.863 4.10079L71.2035 3.43254V3.43254L70.863 4.10079ZM70.8637 5.67063C71.1566 5.37774 71.1566 4.90286 70.8637 4.60997C70.5708 4.31708 70.0959 4.31708 69.803 4.60997L70.8637 5.67063ZM63.4697 10.9433C63.1768 11.2362 63.1768 11.7111 63.4697 12.004C63.7626 12.2969 64.2374 12.2969 64.5303 12.004L63.4697 10.9433ZM58.0512 18.664L58.3917 17.9957H58.3917L58.0512 18.664ZM56.8096 17.4225L56.1414 17.763H56.1414L56.8096 17.4225ZM68.6904 17.4225L68.0221 17.082L68.6904 17.4225ZM67.4488 18.664L67.1083 17.9957L67.4488 18.664ZM58.0512 6.78327L57.7107 6.11502L58.0512 6.78327ZM56.8096 8.0248L56.1414 7.6843L56.8096 8.0248ZM62.75 7.22363C63.1642 7.22363 63.5 6.88785 63.5 6.47363C63.5 6.05942 63.1642 5.72363 62.75 5.72363V7.22363ZM69.75 12.7236C69.75 12.3094 69.4142 11.9736 69 11.9736C68.5858 11.9736 68.25 12.3094 68.25 12.7236H69.75ZM72.25 9.80697V5.8403H70.75V9.80697H72.25ZM69.6333 3.22363H65.6667V4.72363H69.6333V3.22363ZM72.25 5.8403C72.25 5.52598 72.2506 5.24513 72.2316 5.01296C72.2119 4.77204 72.1675 4.51828 72.0411 4.27015L70.7046 4.95114C70.7053 4.95257 70.7245 4.98695 70.7366 5.13511C70.7494 5.29203 70.75 5.50123 70.75 5.8403H72.25ZM69.6333 4.72363C69.9724 4.72363 70.1816 4.72422 70.3385 4.73704C70.4867 4.74914 70.5211 4.76832 70.5225 4.76905L71.2035 3.43254C70.9553 3.30611 70.7016 3.2617 70.4607 3.24202C70.2285 3.22305 69.9477 3.22363 69.6333 3.22363V4.72363ZM72.0411 4.27015C71.8573 3.90951 71.5641 3.6163 71.2035 3.43254L70.5225 4.76905C70.6009 4.80899 70.6646 4.87273 70.7046 4.95114L72.0411 4.27015ZM69.803 4.60997L63.4697 10.9433L64.5303 12.004L70.8637 5.67063L69.803 4.60997ZM64.4545 18.2236H61.0455V19.7236H64.4545V18.2236ZM57.25 14.4282V11.0191H55.75V14.4282H57.25ZM61.0455 18.2236C60.2376 18.2236 59.6767 18.223 59.2406 18.1874C58.8133 18.1525 58.5722 18.0877 58.3917 17.9957L57.7107 19.3322C58.1379 19.5499 58.5984 19.6399 59.1185 19.6824C59.6298 19.7242 60.2623 19.7236 61.0455 19.7236V18.2236ZM55.75 14.4282C55.75 15.2113 55.7494 15.8438 55.7912 16.3552C55.8337 16.8753 55.9237 17.3358 56.1414 17.763L57.4779 17.082C57.3859 16.9015 57.3211 16.6604 57.2862 16.233C57.2506 15.7969 57.25 15.2361 57.25 14.4282H55.75ZM58.3917 17.9957C57.9982 17.7953 57.6784 17.4754 57.4779 17.082L56.1414 17.763C56.4857 18.4386 57.035 18.988 57.7107 19.3322L58.3917 17.9957ZM68.25 14.4282C68.25 15.2361 68.2494 15.7969 68.2138 16.233C68.1789 16.6604 68.1141 16.9015 68.0221 17.082L69.3586 17.763C69.5763 17.3358 69.6663 16.8753 69.7088 16.3552C69.7506 15.8438 69.75 15.2113 69.75 14.4282H68.25ZM64.4545 19.7236C65.2377 19.7236 65.8702 19.7242 66.3815 19.6824C66.9016 19.6399 67.3621 19.5499 67.7893 19.3322L67.1083 17.9957C66.9278 18.0877 66.6867 18.1525 66.2594 18.1874C65.8233 18.223 65.2624 18.2236 64.4545 18.2236V19.7236ZM68.0221 17.082C67.8216 17.4754 67.5018 17.7953 67.1083 17.9957L67.7893 19.3322C68.465 18.988 69.0143 18.4386 69.3586 17.763L68.0221 17.082ZM61.0455 5.72363C60.2623 5.72363 59.6298 5.72305 59.1185 5.76483C58.5984 5.80732 58.1379 5.89735 57.7107 6.11502L58.3917 7.45153C58.5722 7.35956 58.8133 7.29476 59.2406 7.25985C59.6767 7.22422 60.2375 7.22363 61.0455 7.22363V5.72363ZM57.25 11.0191C57.25 10.2112 57.2506 9.65036 57.2862 9.21426C57.3211 8.78691 57.3859 8.54579 57.4779 8.36529L56.1414 7.6843C55.9237 8.11151 55.8337 8.572 55.7912 9.09211C55.7494 9.60346 55.75 10.2359 55.75 11.0191H57.25ZM57.7107 6.11502C57.035 6.45929 56.4857 7.00863 56.1414 7.6843L57.4779 8.36529C57.6784 7.97186 57.9982 7.65199 58.3917 7.45153L57.7107 6.11502ZM61.0455 7.22363H62.75V5.72363H61.0455V7.22363ZM68.25 12.7236V14.4282H69.75V12.7236H68.25Z" fill="#D3AD7F"/>
</g>
<defs>
<clipPath id="clip0_136_3220">
<rect y="0.473633" width="74" height="22" rx="5" fill="white"/>
</clipPath>
</defs>
</svg>
